<svg class="typst-doc" viewBox="0 0 161.57480314960628 161.57480314960628" width="161.57480314960628pt" height="161.57480314960628pt" xmlns="http://www.w3.org/2000/svg" xmlns:xlink="http://www.w3.org/1999/xlink" xmlns:h5="http://www.w3.org/1999/xhtml">
    <path class="typst-shape" fill="#ffffff" fill-rule="nonzero" d="M 0 0 L 0 161.5748 L 161.5748 161.5748 L 161.5748 0 Z "/>
    <g>
        <g transform="translate(0 0)">
            <g class="typst-group">
                <g>
                    <g transform="translate(24.09448818897638 137.48031496062993)">
                        <path class="typst-shape" fill="none" stroke="#000000" stroke-width="1" stroke-linecap="butt" stroke-linejoin="miter" stroke-miterlimit="4" d="M 0 0 C 0 0 0 0 0 0 C 0 0 0 0 0 0 C 0 0 0 0 0 0 C 0 0 0 0 0 0 Z "/>
                    </g>
                    <g transform="translate(24.09448818897638 109.13385826771652)">
                        <path class="typst-shape" fill="none" stroke="#000000" stroke-width="1" stroke-linecap="butt" stroke-linejoin="miter" stroke-miterlimit="4" d="M 0 0 C 0 0 0 0 0 0 C 0 0 0 0 0 0 C 0 0 0 0 0 0 C 0 0 0 0 0 0 Z "/>
                    </g>
                    <g transform="translate(24.09448818897638 80.78740157480314)">
                        <path class="typst-shape" fill="none" stroke="#000000" stroke-width="1" stroke-linecap="butt" stroke-linejoin="miter" stroke-miterlimit="4" d="M 0 0 C 0 0 0 0 0 0 C 0 0 0 0 0 0 C 0 0 0 0 0 0 C 0 0 0 0 0 0 Z "/>
                    </g>
                    <g transform="translate(24.09448818897638 52.440944881889756)">
                        <path class="typst-shape" fill="none" stroke="#000000" stroke-width="1" stroke-linecap="butt" stroke-linejoin="miter" stroke-miterlimit="4" d="M 0 0 C 0 0 0 0 0 0 C 0 0 0 0 0 0 C 0 0 0 0 0 0 C 0 0 0 0 0 0 Z "/>
                    </g>
                    <g transform="translate(24.09448818897638 24.094488188976367)">
                        <path class="typst-shape" fill="none" stroke="#000000" stroke-width="1" stroke-linecap="butt" stroke-linejoin="miter" stroke-miterlimit="4" d="M 0 0 C 0 0 0 0 0 0 C 0 0 0 0 0 0 C 0 0 0 0 0 0 C 0 0 0 0 0 0 Z "/>
                    </g>
                    <g transform="translate(52.44094488188976 137.48031496062993)">
                        <path class="typst-shape" fill="none" stroke="#000000" stroke-width="1" stroke-linecap="butt" stroke-linejoin="miter" stroke-miterlimit="4" d="M 0 0 C 0 0 0 0 0 0 C 0 0 0 0 0 0 C 0 0 0 0 0 0 C 0 0 0 0 0 0 Z "/>
                    </g>
                    <g transform="translate(52.44094488188976 109.13385826771652)">
                        <path class="typst-shape" fill="none" stroke="#000000" stroke-width="1" stroke-linecap="butt" stroke-linejoin="miter" stroke-miterlimit="4" d="M 0 0 C 0 0 0 0 0 0 C 0 0 0 0 0 0 C 0 0 0 0 0 0 C 0 0 0 0 0 0 Z "/>
                    </g>
                    <g transform="translate(52.44094488188976 80.78740157480314)">
                        <path class="typst-shape" fill="none" stroke="#000000" stroke-width="1" stroke-linecap="butt" stroke-linejoin="miter" stroke-miterlimit="4" d="M 0 0 C 0 0 0 0 0 0 C 0 0 0 0 0 0 C 0 0 0 0 0 0 C 0 0 0 0 0 0 Z "/>
                    </g>
                    <g transform="translate(52.44094488188976 52.440944881889756)">
                        <path class="typst-shape" fill="none" stroke="#000000" stroke-width="1" stroke-linecap="butt" stroke-linejoin="miter" stroke-miterlimit="4" d="M 0 0 C 0 0 0 0 0 0 C 0 0 0 0 0 0 C 0 0 0 0 0 0 C 0 0 0 0 0 0 Z "/>
                    </g>
                    <g transform="translate(52.44094488188976 24.094488188976367)">
                        <path class="typst-shape" fill="none" stroke="#000000" stroke-width="1" stroke-linecap="butt" stroke-linejoin="miter" stroke-miterlimit="4" d="M 0 0 C 0 0 0 0 0 0 C 0 0 0 0 0 0 C 0 0 0 0 0 0 C 0 0 0 0 0 0 Z "/>
                    </g>
                    <g transform="translate(109.13385826771653 137.48031496062993)">
                        <path class="typst-shape" fill="none" stroke="#000000" stroke-width="1" stroke-linecap="butt" stroke-linejoin="miter" stroke-miterlimit="4" d="M 0 0 C 0 0 0 0 0 0 C 0 0 0 0 0 0 C 0 0 0 0 0 0 C 0 0 0 0 0 0 Z "/>
                    </g>
                    <g transform="translate(109.13385826771653 109.13385826771652)">
                        <path class="typst-shape" fill="none" stroke="#000000" stroke-width="1" stroke-linecap="butt" stroke-linejoin="miter" stroke-miterlimit="4" d="M 0 0 C 0 0 0 0 0 0 C 0 0 0 0 0 0 C 0 0 0 0 0 0 C 0 0 0 0 0 0 Z "/>
                    </g>
                    <g transform="translate(109.13385826771653 80.78740157480314)">
                        <path class="typst-shape" fill="none" stroke="#000000" stroke-width="1" stroke-linecap="butt" stroke-linejoin="miter" stroke-miterlimit="4" d="M 0 0 C 0 0 0 0 0 0 C 0 0 0 0 0 0 C 0 0 0 0 0 0 C 0 0 0 0 0 0 Z "/>
                    </g>
                    <g transform="translate(109.13385826771653 52.440944881889756)">
                        <path class="typst-shape" fill="none" stroke="#000000" stroke-width="1" stroke-linecap="butt" stroke-linejoin="miter" stroke-miterlimit="4" d="M 0 0 C 0 0 0 0 0 0 C 0 0 0 0 0 0 C 0 0 0 0 0 0 C 0 0 0 0 0 0 Z "/>
                    </g>
                    <g transform="translate(109.13385826771653 24.094488188976367)">
                        <path class="typst-shape" fill="none" stroke="#000000" stroke-width="1" stroke-linecap="butt" stroke-linejoin="miter" stroke-miterlimit="4" d="M 0 0 C 0 0 0 0 0 0 C 0 0 0 0 0 0 C 0 0 0 0 0 0 C 0 0 0 0 0 0 Z "/>
                    </g>
                    <g transform="translate(80.78740157480316 137.48031496062993)">
                        <path class="typst-shape" fill="none" stroke="#000000" stroke-width="1" stroke-linecap="butt" stroke-linejoin="miter" stroke-miterlimit="4" d="M 0 0 C 0 0 0 0 0 0 C 0 0 0 0 0 0 C 0 0 0 0 0 0 C 0 0 0 0 0 0 Z "/>
                    </g>
                    <g transform="translate(80.78740157480316 109.13385826771652)">
                        <path class="typst-shape" fill="none" stroke="#000000" stroke-width="1" stroke-linecap="butt" stroke-linejoin="miter" stroke-miterlimit="4" d="M 0 0 C 0 0 0 0 0 0 C 0 0 0 0 0 0 C 0 0 0 0 0 0 C 0 0 0 0 0 0 Z "/>
                    </g>
                    <g transform="translate(80.78740157480316 80.78740157480314)">
                        <path class="typst-shape" fill="none" stroke="#000000" stroke-width="1" stroke-linecap="butt" stroke-linejoin="miter" stroke-miterlimit="4" d="M 0 0 C 0 0 0 0 0 0 C 0 0 0 0 0 0 C 0 0 0 0 0 0 C 0 0 0 0 0 0 Z "/>
                    </g>
                    <g transform="translate(80.78740157480316 52.440944881889756)">
                        <path class="typst-shape" fill="none" stroke="#000000" stroke-width="1" stroke-linecap="butt" stroke-linejoin="miter" stroke-miterlimit="4" d="M 0 0 C 0 0 0 0 0 0 C 0 0 0 0 0 0 C 0 0 0 0 0 0 C 0 0 0 0 0 0 Z "/>
                    </g>
                    <g transform="translate(80.78740157480316 24.094488188976367)">
                        <path class="typst-shape" fill="none" stroke="#000000" stroke-width="1" stroke-linecap="butt" stroke-linejoin="miter" stroke-miterlimit="4" d="M 0 0 C 0 0 0 0 0 0 C 0 0 0 0 0 0 C 0 0 0 0 0 0 C 0 0 0 0 0 0 Z "/>
                    </g>
                    <g transform="translate(137.48031496062993 137.48031496062993)">
                        <path class="typst-shape" fill="none" stroke="#000000" stroke-width="1" stroke-linecap="butt" stroke-linejoin="miter" stroke-miterlimit="4" d="M 0 0 C 0 0 0 0 0 0 C 0 0 0 0 0 0 C 0 0 0 0 0 0 C 0 0 0 0 0 0 Z "/>
                    </g>
                    <g transform="translate(137.48031496062993 109.13385826771652)">
                        <path class="typst-shape" fill="none" stroke="#000000" stroke-width="1" stroke-linecap="butt" stroke-linejoin="miter" stroke-miterlimit="4" d="M 0 0 C 0 0 0 0 0 0 C 0 0 0 0 0 0 C 0 0 0 0 0 0 C 0 0 0 0 0 0 Z "/>
                    </g>
                    <g transform="translate(137.48031496062993 80.78740157480314)">
                        <path class="typst-shape" fill="none" stroke="#000000" stroke-width="1" stroke-linecap="butt" stroke-linejoin="miter" stroke-miterlimit="4" d="M 0 0 C 0 0 0 0 0 0 C 0 0 0 0 0 0 C 0 0 0 0 0 0 C 0 0 0 0 0 0 Z "/>
                    </g>
                    <g transform="translate(137.48031496062993 52.440944881889756)">
                        <path class="typst-shape" fill="none" stroke="#000000" stroke-width="1" stroke-linecap="butt" stroke-linejoin="miter" stroke-miterlimit="4" d="M 0 0 C 0 0 0 0 0 0 C 0 0 0 0 0 0 C 0 0 0 0 0 0 C 0 0 0 0 0 0 Z "/>
                    </g>
                    <g transform="translate(137.48031496062993 24.094488188976367)">
                        <path class="typst-shape" fill="none" stroke="#000000" stroke-width="1" stroke-linecap="butt" stroke-linejoin="miter" stroke-miterlimit="4" d="M 0 0 C 0 0 0 0 0 0 C 0 0 0 0 0 0 C 0 0 0 0 0 0 C 0 0 0 0 0 0 Z "/>
                    </g>
                    <g transform="translate(24.09448818897638 137.48031496062993)">
                        <path class="typst-shape" fill="none" stroke="#000000" stroke-width="1" stroke-linecap="butt" stroke-linejoin="miter" stroke-miterlimit="4" d="M 0 0 L 56.692913 0 "/>
                    </g>
                    <g transform="translate(24.09448818897638 109.13385826771652)">
                        <path class="typst-shape" fill="none" stroke="#000000" stroke-width="1" stroke-linecap="butt" stroke-linejoin="miter" stroke-miterlimit="4" d="M 0 28.346457 L 56.692913 0 "/>
                    </g>
                    <g transform="translate(24.09448818897638 80.78740157480314)">
                        <path class="typst-shape" fill="none" stroke="#000000" stroke-width="1" stroke-linecap="butt" stroke-linejoin="miter" stroke-miterlimit="4" d="M 0 56.692913 L 56.692913 0 "/>
                    </g>
                    <g transform="translate(24.09448818897638 52.440944881889756)">
                        <path class="typst-shape" fill="none" stroke="#000000" stroke-width="1" stroke-linecap="butt" stroke-linejoin="miter" stroke-miterlimit="4" d="M 0 85.03937 L 56.692913 0 "/>
                    </g>
                    <g transform="translate(24.09448818897638 24.094488188976367)">
                        <path class="typst-shape" fill="none" stroke="#000000" stroke-width="1" stroke-linecap="butt" stroke-linejoin="miter" stroke-miterlimit="4" d="M 0 113.385826 L 56.692913 0 "/>
                    </g>
                    <g transform="translate(24.09448818897638 109.13385826771652)">
                        <path class="typst-shape" fill="none" stroke="#000000" stroke-width="1" stroke-linecap="butt" stroke-linejoin="miter" stroke-miterlimit="4" d="M 0 0 L 56.692913 28.346457 "/>
                    </g>
                    <g transform="translate(24.09448818897638 109.13385826771652)">
                        <path class="typst-shape" fill="none" stroke="#000000" stroke-width="1" stroke-linecap="butt" stroke-linejoin="miter" stroke-miterlimit="4" d="M 0 0 L 56.692913 0 "/>
                    </g>
                    <g transform="translate(24.09448818897638 80.78740157480314)">
                        <path class="typst-shape" fill="none" stroke="#000000" stroke-width="1" stroke-linecap="butt" stroke-linejoin="miter" stroke-miterlimit="4" d="M 0 28.346457 L 56.692913 0 "/>
                    </g>
                    <g transform="translate(24.09448818897638 52.440944881889756)">
                        <path class="typst-shape" fill="none" stroke="#000000" stroke-width="1" stroke-linecap="butt" stroke-linejoin="miter" stroke-miterlimit="4" d="M 0 56.692913 L 56.692913 0 "/>
                    </g>
                    <g transform="translate(24.09448818897638 24.094488188976367)">
                        <path class="typst-shape" fill="none" stroke="#000000" stroke-width="1" stroke-linecap="butt" stroke-linejoin="miter" stroke-miterlimit="4" d="M 0 85.03937 L 56.692913 0 "/>
                    </g>
                    <g transform="translate(24.09448818897638 80.78740157480314)">
                        <path class="typst-shape" fill="none" stroke="#000000" stroke-width="1" stroke-linecap="butt" stroke-linejoin="miter" stroke-miterlimit="4" d="M 0 0 L 56.692913 56.692913 "/>
                    </g>
                    <g transform="translate(24.09448818897638 80.78740157480314)">
                        <path class="typst-shape" fill="none" stroke="#000000" stroke-width="1" stroke-linecap="butt" stroke-linejoin="miter" stroke-miterlimit="4" d="M 0 0 L 56.692913 28.346457 "/>
                    </g>
                    <g transform="translate(24.09448818897638 80.78740157480314)">
                        <path class="typst-shape" fill="none" stroke="#000000" stroke-width="1" stroke-linecap="butt" stroke-linejoin="miter" stroke-miterlimit="4" d="M 0 0 L 56.692913 0 "/>
                    </g>
                    <g transform="translate(24.09448818897638 52.440944881889756)">
                        <path class="typst-shape" fill="none" stroke="#000000" stroke-width="1" stroke-linecap="butt" stroke-linejoin="miter" stroke-miterlimit="4" d="M 0 28.346457 L 56.692913 0 "/>
                    </g>
                    <g transform="translate(24.09448818897638 24.094488188976367)">
                        <path class="typst-shape" fill="none" stroke="#000000" stroke-width="1" stroke-linecap="butt" stroke-linejoin="miter" stroke-miterlimit="4" d="M 0 56.692913 L 56.692913 0 "/>
                    </g>
                    <g transform="translate(24.09448818897638 52.440944881889756)">
                        <path class="typst-shape" fill="none" stroke="#000000" stroke-width="1" stroke-linecap="butt" stroke-linejoin="miter" stroke-miterlimit="4" d="M 0 0 L 56.692913 85.03937 "/>
                    </g>
                    <g transform="translate(24.09448818897638 52.440944881889756)">
                        <path class="typst-shape" fill="none" stroke="#000000" stroke-width="1" stroke-linecap="butt" stroke-linejoin="miter" stroke-miterlimit="4" d="M 0 0 L 56.692913 56.692913 "/>
                    </g>
                    <g transform="translate(24.09448818897638 52.440944881889756)">
                        <path class="typst-shape" fill="none" stroke="#000000" stroke-width="1" stroke-linecap="butt" stroke-linejoin="miter" stroke-miterlimit="4" d="M 0 0 L 56.692913 28.346457 "/>
                    </g>
                    <g transform="translate(24.09448818897638 52.440944881889756)">
                        <path class="typst-shape" fill="none" stroke="#000000" stroke-width="1" stroke-linecap="butt" stroke-linejoin="miter" stroke-miterlimit="4" d="M 0 0 L 56.692913 0 "/>
                    </g>
                    <g transform="translate(24.09448818897638 24.094488188976367)">
                        <path class="typst-shape" fill="none" stroke="#000000" stroke-width="1" stroke-linecap="butt" stroke-linejoin="miter" stroke-miterlimit="4" d="M 0 28.346457 L 56.692913 0 "/>
                    </g>
                    <g transform="translate(24.09448818897638 24.094488188976367)">
                        <path class="typst-shape" fill="none" stroke="#000000" stroke-width="1" stroke-linecap="butt" stroke-linejoin="miter" stroke-miterlimit="4" d="M 0 0 L 56.692913 113.385826 "/>
                    </g>
                    <g transform="translate(24.09448818897638 24.094488188976367)">
                        <path class="typst-shape" fill="none" stroke="#000000" stroke-width="1" stroke-linecap="butt" stroke-linejoin="miter" stroke-miterlimit="4" d="M 0 0 L 56.692913 85.03937 "/>
                    </g>
                    <g transform="translate(24.09448818897638 24.094488188976367)">
                        <path class="typst-shape" fill="none" stroke="#000000" stroke-width="1" stroke-linecap="butt" stroke-linejoin="miter" stroke-miterlimit="4" d="M 0 0 L 56.692913 56.692913 "/>
                    </g>
                    <g transform="translate(24.09448818897638 24.094488188976367)">
                        <path class="typst-shape" fill="none" stroke="#000000" stroke-width="1" stroke-linecap="butt" stroke-linejoin="miter" stroke-miterlimit="4" d="M 0 0 L 56.692913 28.346457 "/>
                    </g>
                    <g transform="translate(24.09448818897638 24.094488188976367)">
                        <path class="typst-shape" fill="none" stroke="#000000" stroke-width="1" stroke-linecap="butt" stroke-linejoin="miter" stroke-miterlimit="4" d="M 0 0 L 56.692913 0 "/>
                    </g>
                    <g transform="translate(80.78740157480316 137.48031496062993)">
                        <path class="typst-shape" fill="none" stroke="#000000" stroke-width="1" stroke-linecap="butt" stroke-linejoin="miter" stroke-miterlimit="4" d="M 0 0 L 56.692913 0 "/>
                    </g>
                    <g transform="translate(80.78740157480316 109.13385826771652)">
                        <path class="typst-shape" fill="none" stroke="#000000" stroke-width="1" stroke-linecap="butt" stroke-linejoin="miter" stroke-miterlimit="4" d="M 0 28.346457 L 56.692913 0 "/>
                    </g>
                    <g transform="translate(80.78740157480316 80.78740157480314)">
                        <path class="typst-shape" fill="none" stroke="#000000" stroke-width="1" stroke-linecap="butt" stroke-linejoin="miter" stroke-miterlimit="4" d="M 0 56.692913 L 56.692913 0 "/>
                    </g>
                    <g transform="translate(80.78740157480316 52.440944881889756)">
                        <path class="typst-shape" fill="none" stroke="#000000" stroke-width="1" stroke-linecap="butt" stroke-linejoin="miter" stroke-miterlimit="4" d="M 0 85.03937 L 56.692913 0 "/>
                    </g>
                    <g transform="translate(80.78740157480316 24.094488188976367)">
                        <path class="typst-shape" fill="none" stroke="#000000" stroke-width="1" stroke-linecap="butt" stroke-linejoin="miter" stroke-miterlimit="4" d="M 0 113.385826 L 56.692913 0 "/>
                    </g>
                    <g transform="translate(80.78740157480316 109.13385826771652)">
                        <path class="typst-shape" fill="none" stroke="#000000" stroke-width="1" stroke-linecap="butt" stroke-linejoin="miter" stroke-miterlimit="4" d="M 0 0 L 56.692913 28.346457 "/>
                    </g>
                    <g transform="translate(80.78740157480316 109.13385826771652)">
                        <path class="typst-shape" fill="none" stroke="#000000" stroke-width="1" stroke-linecap="butt" stroke-linejoin="miter" stroke-miterlimit="4" d="M 0 0 L 56.692913 0 "/>
                    </g>
                    <g transform="translate(80.78740157480316 80.78740157480314)">
                        <path class="typst-shape" fill="none" stroke="#000000" stroke-width="1" stroke-linecap="butt" stroke-linejoin="miter" stroke-miterlimit="4" d="M 0 28.346457 L 56.692913 0 "/>
                    </g>
                    <g transform="translate(80.78740157480316 52.440944881889756)">
                        <path class="typst-shape" fill="none" stroke="#000000" stroke-width="1" stroke-linecap="butt" stroke-linejoin="miter" stroke-miterlimit="4" d="M 0 56.692913 L 56.692913 0 "/>
                    </g>
                    <g transform="translate(80.78740157480316 24.094488188976367)">
                        <path class="typst-shape" fill="none" stroke="#000000" stroke-width="1" stroke-linecap="butt" stroke-linejoin="miter" stroke-miterlimit="4" d="M 0 85.03937 L 56.692913 0 "/>
                    </g>
                    <g transform="translate(80.78740157480316 80.78740157480314)">
                        <path class="typst-shape" fill="none" stroke="#000000" stroke-width="1" stroke-linecap="butt" stroke-linejoin="miter" stroke-miterlimit="4" d="M 0 0 L 56.692913 56.692913 "/>
                    </g>
                    <g transform="translate(80.78740157480316 80.78740157480314)">
                        <path class="typst-shape" fill="none" stroke="#000000" stroke-width="1" stroke-linecap="butt" stroke-linejoin="miter" stroke-miterlimit="4" d="M 0 0 L 56.692913 28.346457 "/>
                    </g>
                    <g transform="translate(80.78740157480316 80.78740157480314)">
                        <path class="typst-shape" fill="none" stroke="#000000" stroke-width="1" stroke-linecap="butt" stroke-linejoin="miter" stroke-miterlimit="4" d="M 0 0 L 56.692913 0 "/>
                    </g>
                    <g transform="translate(80.78740157480316 52.440944881889756)">
                        <path class="typst-shape" fill="none" stroke="#000000" stroke-width="1" stroke-linecap="butt" stroke-linejoin="miter" stroke-miterlimit="4" d="M 0 28.346457 L 56.692913 0 "/>
                    </g>
                    <g transform="translate(80.78740157480316 24.094488188976367)">
                        <path class="typst-shape" fill="none" stroke="#000000" stroke-width="1" stroke-linecap="butt" stroke-linejoin="miter" stroke-miterlimit="4" d="M 0 56.692913 L 56.692913 0 "/>
                    </g>
                    <g transform="translate(80.78740157480316 52.440944881889756)">
                        <path class="typst-shape" fill="none" stroke="#000000" stroke-width="1" stroke-linecap="butt" stroke-linejoin="miter" stroke-miterlimit="4" d="M 0 0 L 56.692913 85.03937 "/>
                    </g>
                    <g transform="translate(80.78740157480316 52.440944881889756)">
                        <path class="typst-shape" fill="none" stroke="#000000" stroke-width="1" stroke-linecap="butt" stroke-linejoin="miter" stroke-miterlimit="4" d="M 0 0 L 56.692913 56.692913 "/>
                    </g>
                    <g transform="translate(80.78740157480316 52.440944881889756)">
                        <path class="typst-shape" fill="none" stroke="#000000" stroke-width="1" stroke-linecap="butt" stroke-linejoin="miter" stroke-miterlimit="4" d="M 0 0 L 56.692913 28.346457 "/>
                    </g>
                    <g transform="translate(80.78740157480316 52.440944881889756)">
                        <path class="typst-shape" fill="none" stroke="#000000" stroke-width="1" stroke-linecap="butt" stroke-linejoin="miter" stroke-miterlimit="4" d="M 0 0 L 56.692913 0 "/>
                    </g>
                    <g transform="translate(80.78740157480316 24.094488188976367)">
                        <path class="typst-shape" fill="none" stroke="#000000" stroke-width="1" stroke-linecap="butt" stroke-linejoin="miter" stroke-miterlimit="4" d="M 0 28.346457 L 56.692913 0 "/>
                    </g>
                    <g transform="translate(80.78740157480316 24.094488188976367)">
                        <path class="typst-shape" fill="none" stroke="#000000" stroke-width="1" stroke-linecap="butt" stroke-linejoin="miter" stroke-miterlimit="4" d="M 0 0 L 56.692913 113.385826 "/>
                    </g>
                    <g transform="translate(80.78740157480316 24.094488188976367)">
                        <path class="typst-shape" fill="none" stroke="#000000" stroke-width="1" stroke-linecap="butt" stroke-linejoin="miter" stroke-miterlimit="4" d="M 0 0 L 56.692913 85.03937 "/>
                    </g>
                    <g transform="translate(80.78740157480316 24.094488188976367)">
                        <path class="typst-shape" fill="none" stroke="#000000" stroke-width="1" stroke-linecap="butt" stroke-linejoin="miter" stroke-miterlimit="4" d="M 0 0 L 56.692913 56.692913 "/>
                    </g>
                    <g transform="translate(80.78740157480316 24.094488188976367)">
                        <path class="typst-shape" fill="none" stroke="#000000" stroke-width="1" stroke-linecap="butt" stroke-linejoin="miter" stroke-miterlimit="4" d="M 0 0 L 56.692913 28.346457 "/>
                    </g>
                    <g transform="translate(80.78740157480316 24.094488188976367)">
                        <path class="typst-shape" fill="none" stroke="#000000" stroke-width="1" stroke-linecap="butt" stroke-linejoin="miter" stroke-miterlimit="4" d="M 0 0 L 56.692913 0 "/>
                    </g>
                    <g transform="translate(0 0)">
                        <path class="typst-shape" fill="none" stroke="#000000" stroke-width="1" stroke-linecap="butt" stroke-linejoin="miter" stroke-miterlimit="4" d="M 80.7874 0 C 36.210205 0 0 36.210205 0 80.7874 C 0 125.36459 36.210205 161.5748 80.7874 161.5748 C 125.36459 161.5748 161.5748 125.36459 161.5748 80.7874 C 161.5748 36.210205 125.36459 0 80.7874 0 Z "/>
                    </g>
                    <g transform="translate(52.44094488188976 52.440944881889756)">
                        <path class="typst-shape" fill="none" stroke="#000000" stroke-width="1" stroke-linecap="butt" stroke-linejoin="miter" stroke-miterlimit="4" d="M 28.346457 0 C 12.705336 0 0 12.705336 0 28.346457 C 0 43.98758 12.705336 56.692913 28.346457 56.692913 C 43.98758 56.692913 56.692913 43.98758 56.692913 28.346457 C 56.692913 12.705336 43.98758 0 28.346457 0 Z "/>
                    </g>
                    <g transform="translate(17.007874015748037 17.00787401574802)">
                        <path class="typst-shape" fill="none" stroke="#000000" stroke-width="1" stroke-linecap="butt" stroke-linejoin="miter" stroke-miterlimit="4" d="M 63.779526 0 C 28.587006 0 0 28.587006 0 63.779526 C 0 98.97205 28.587006 127.55905 63.779526 127.55905 C 98.97205 127.55905 127.55905 98.97205 127.55905 63.779526 C 127.55905 28.587006 98.97205 0 63.779526 0 Z "/>
                    </g>
                    <g transform="translate(24.09448818897638 24.094488188976367)">
                        <path class="typst-shape" fill="none" stroke="#000000" stroke-width="1" stroke-linecap="butt" stroke-linejoin="miter" stroke-miterlimit="4" d="M 56.692913 0 C 25.410671 0 0 25.410671 0 56.692913 C 0 87.97516 25.410671 113.385826 56.692913 113.385826 C 87.97516 113.385826 113.385826 87.97516 113.385826 56.692913 C 113.385826 25.410671 87.97516 0 56.692913 0 Z "/>
                    </g>
                    <g transform="translate(0 66.61417322834644)">
                        <path class="typst-shape" fill="none" stroke="#000000" stroke-width="1" stroke-linecap="butt" stroke-linejoin="miter" stroke-miterlimit="4" stroke-dashoffset="0" stroke-dasharray="3 3" d="M 80.7874 0 C 36.210205 0 0 6.352668 0 14.173228 C 0 21.99379 36.210205 28.346457 80.7874 28.346457 C 125.36459 28.346457 161.5748 21.99379 161.5748 14.173228 C 161.5748 6.352668 125.36459 0 80.7874 0 Z "/>
                    </g>
                    <g transform="translate(80.78740157480316 55.32433247218541)">
                        <path class="typst-shape" fill="none" stroke="#000000" stroke-width="1" stroke-linecap="butt" stroke-linejoin="miter" stroke-miterlimit="4" d="M 0 25.46307 L 68.75029 0 "/>
                    </g>
                    <g transform="translate(146.90534616850394 52.89860161417323)">
                        <path class="typst-shape" fill="#000000" fill-rule="nonzero" stroke="#000000" stroke-width="1" stroke-linecap="butt" stroke-linejoin="miter" stroke-miterlimit="4" d="M 9.082133 0.036919206 L 2.2151546 5.9809175 L 3.1012163 2.2520738 L 0 0 L 9.082133 0.036919206 Z "/>
                    </g>
                </g>
            </g>
        </g>
    </g>
</svg>
